Coordinates
version=1
nRows=43
nColumns=19
inDegrees=yes

Units are S.I. units (second, meters, Newtons, ...)
Angles are in degrees.

endheader
time	1_Force_X	1_Force_Y	1_Force_Z	1_Moment_X	1_Moment_Y	1_Moment_Z	1_COP_X	1_COP_Y	1_COP_Z	2_Force_X	2_Force_Y	2_Force_Z	2_Moment_X	2_Moment_Y	2_Moment_Z	2_COP_X	2_COP_Y	2_COP_Z
0.2350	10.163	437.008	-16.981	-0.296	0.000	0.517	15.999	350.414	6.013	-0.328	0.000	0.139	0.00000	9.02333	0.00000	0.00000	-3.41735	0.00000
0.2375	10.207	441.169	-16.553	-0.296	0.000	0.517	15.824	354.546	6.812	-0.329	0.000	0.139	0.00000	8.95835	0.00000	0.00000	-3.30074	0.00000
0.2400	10.165	446.897	-15.817	-0.296	0.000	0.517	15.734	357.817	7.565	-0.329	0.000	0.139	0.00000	8.92553	0.00000	0.00000	-3.26031	0.00000
0.2425	10.600	453.135	-15.174	-0.296	0.000	0.518	15.947	362.299	9.197	-0.329	0.000	0.139	0.00000	8.91558	0.00000	0.00000	-3.10335	0.00000
0.2450	11.044	459.722	-14.136	-0.296	0.000	0.519	15.726	365.397	10.037	-0.330	0.000	0.139	0.00000	8.85535	0.00000	0.00000	-3.08386	0.00000
0.2475	10.921	467.880	-12.436	-0.295	0.000	0.520	15.333	371.761	10.709	-0.330	0.000	0.139	0.00000	8.73797	0.00000	0.00000	-3.04783	0.00000
0.2500	11.010	476.551	-11.181	-0.295	0.000	0.520	15.460	377.100	11.951	-0.330	0.000	0.140	0.00000	8.66116	0.00000	0.00000	-2.92930	0.00000
0.2525	11.239	485.744	-9.001	-0.295	0.000	0.521	15.500	383.811	13.281	-0.330	0.000	0.140	0.00000	8.55766	0.00000	0.00000	-2.90108	0.00000
0.2550	10.897	495.469	-6.465	-0.295	0.000	0.522	15.497	391.211	14.616	-0.330	0.000	0.140	0.00000	8.53914	0.00000	0.00000	-2.83606	0.00000
0.2575	11.345	506.568	-3.762	-0.294	0.000	0.523	15.537	398.437	16.036	-0.331	0.000	0.140	0.00000	8.49333	0.00000	0.00000	-2.82399	0.00000
0.2600	11.977	518.761	2.488	-0.295	0.000	0.524	15.273	408.239	17.243	-0.331	0.000	0.140	0.00000	9.26255	0.00000	0.00000	-2.83639	0.00000
0.2625	12.342	530.934	7.407	-0.294	0.000	0.525	14.694	418.916	20.331	-0.332	0.000	0.140	0.00000	9.73777	0.00000	0.00000	-2.71925	0.00000
0.2650	12.537	543.956	12.404	-0.294	0.000	0.527	14.163	431.129	22.771	-0.333	0.000	0.141	0.00000	9.83241	0.00000	0.00000	-2.74814	0.00000
0.2675	12.426	557.520	18.070	-0.294	0.000	0.527	13.712	443.521	25.994	-0.333	0.000	0.141	0.00000	10.14880	0.00000	0.00000	-2.76341	0.00000
0.2700	12.696	573.134	21.162	-0.294	0.000	0.528	13.089	456.770	28.959	-0.334	0.000	0.141	0.00000	10.10627	0.00000	0.00000	-2.81922	0.00000
0.2725	12.312	588.430	26.031	-0.294	0.000	0.529	12.993	470.704	31.711	-0.335	0.000	0.141	0.00000	10.38043	0.00000	0.00000	-2.86020	0.00000
0.2750	11.622	604.074	31.032	-0.294	0.000	0.530	13.241	485.669	34.947	-0.335	0.000	0.141	0.00000	10.59050	0.00000	0.00000	-3.03725	0.00000
0.2775	11.726	618.830	35.671	-0.294	0.000	0.531	13.397	499.611	38.879	-0.335	0.000	0.142	0.00000	10.67209	0.00000	0.00000	-3.09908	0.00000
0.2800	11.083	634.643	41.112	-0.294	0.000	0.531	14.344	515.264	42.208	-0.336	0.000	0.142	0.00000	10.83160	0.00000	0.00000	-3.25734	0.00000
0.2825	10.217	647.505	46.117	-0.294	0.000	0.532	15.507	529.897	46.236	-0.336	0.000	0.142	0.00000	11.04637	0.00000	0.00000	-3.22120	0.00000
0.2850	10.051	661.749	50.190	-0.294	0.000	0.533	16.713	545.210	49.916	-0.336	0.000	0.142	0.00000	11.18071	0.00000	0.00000	-3.32285	0.00000
0.2875	9.577	674.604	54.312	-0.294	0.000	0.533	18.055	561.213	53.202	-0.337	0.000	0.142	0.00000	11.27965	0.00000	0.00000	-3.32172	0.00000
0.2900	9.099	686.245	57.333	-0.294	0.000	0.534	20.049	575.150	56.442	-0.337	0.000	0.142	0.00000	11.43210	0.00000	0.00000	-3.42520	0.00000
0.2925	8.620	697.882	60.265	-0.294	0.000	0.534	21.655	589.947	59.334	-0.337	0.000	0.142	0.00000	11.49896	0.00000	0.00000	-3.41863	0.00000
0.2950	8.050	708.837	62.896	-0.294	0.000	0.534	23.612	605.422	61.575	-0.337	0.000	0.142	0.00000	11.70809	0.00000	0.00000	-3.58625	0.00000
0.2975	7.259	717.881	64.957	-0.294	0.000	0.534	25.612	618.324	63.894	-0.337	0.000	0.142	0.00000	11.84804	0.00000	0.00000	-3.62738	0.00000
0.3000	6.815	727.607	66.218	-0.294	0.000	0.534	27.701	631.572	66.214	-0.337	0.000	0.142	0.00000	11.88189	0.00000	0.00000	-3.61800	0.00000
0.3025	6.634	735.079	67.619	-0.294	0.000	0.534	29.745	642.581	68.266	-0.337	0.000	0.142	0.00000	12.01288	0.00000	0.00000	-3.69102	0.00000
0.3050	6.143	743.249	68.798	-0.295	0.000	0.534	31.838	654.446	69.751	-0.337	0.000	0.141	0.00000	12.16640	0.00000	0.00000	-3.74916	0.00000
0.3075	5.655	749.683	69.452	-0.295	0.000	0.534	33.932	664.595	70.925	-0.337	0.000	0.141	0.00000	12.26470	0.00000	0.00000	-3.70672	0.00000
0.3100	5.567	755.586	70.498	-0.295	0.000	0.534	36.459	673.544	72.621	-0.337	0.000	0.141	0.00000	12.25963	0.00000	0.00000	-3.65090	0.00000
0.3125	4.903	762.892	71.814	-0.295	0.000	0.534	38.647	683.166	72.614	-0.337	0.000	0.141	0.00000	12.40617	0.00000	0.00000	-3.72731	0.00000
0.3150	4.599	769.493	72.992	-0.295	0.000	0.534	40.612	691.763	73.258	-0.337	0.000	0.140	0.00000	12.36076	0.00000	0.00000	-3.71551	0.00000
0.3175	4.287	776.788	74.259	-0.295	0.000	0.534	43.188	699.674	74.077	-0.337	0.000	0.140	0.00000	12.39031	0.00000	0.00000	-3.71363	0.00000
0.3200	4.117	783.390	75.791	-0.295	0.000	0.533	45.548	707.757	74.546	-0.337	0.000	0.139	0.00000	12.36219	0.00000	0.00000	-3.63973	0.00000
0.3225	3.411	792.253	77.190	-0.295	0.000	0.533	47.035	717.039	74.927	-0.336	0.000	0.139	0.00000	12.37918	0.00000	0.00000	-3.64950	0.00000
0.3250	2.983	796.600	79.035	-0.295	0.000	0.533	49.260	724.607	75.878	-0.336	0.000	0.139	0.00000	12.32891	0.00000	0.00000	-3.63705	0.00000
0.3275	2.722	803.198	80.479	-0.295	0.000	0.533	51.226	733.035	76.563	-0.336	0.000	0.139	0.00000	12.24943	0.00000	0.00000	-3.57696	0.00000
0.3300	2.336	806.852	81.840	-0.295	0.000	0.533	53.280	740.604	77.117	-0.336	0.000	0.138	0.00000	12.22667	0.00000	0.00000	-3.44120	0.00000
0.3325	2.211	811.888	83.021	-0.295	0.000	0.533	55.597	747.997	77.452	-0.336	0.000	0.138	0.00000	12.13326	0.00000	0.00000	-3.40234	0.00000
0.3350	2.176	815.019	84.429	-0.295	0.000	0.532	57.388	754.016	77.690	-0.336	0.000	0.137	0.00000	12.07683	0.00000	0.00000	-3.35194	0.00000
0.3375	2.180	817.790	85.126	-0.295	0.000	0.532	59.314	757.975	77.797	-0.336	0.000	0.137	0.00000	11.92858	0.00000	0.00000	-3.15742	0.00000
0.3400	2.053	821.095	85.916	-0.295	0.000	0.532	60.764	762.443	77.025	-0.336	0.000	0.137	0.00000	11.92485	0.00000	0.00000	-3.03899	0.00000
